<svg id="Calque_1" data-name="Calque 1" xmlns="http://www.w3.org/2000/svg" viewBox="0 0 830.48 365.62"><defs><style>.cls-1{isolation:isolate;font-size:54.42px;font-family:Gotham-Medium, Gotham;font-weight:500;letter-spacing:0.43em;}.cls-1,.cls-4{fill:#fff;}.cls-2{letter-spacing:0.47em;}.cls-3{letter-spacing:0.47em;}</style></defs><title>LOGO DM+ ACADEMY-21 blanc</title><g id="Calque_5" data-name="Calque 5"><text class="cls-1" transform="translate(175.5 350.71)">A<tspan class="cls-2" x="66.34" y="0">C</tspan><tspan class="cls-3" x="132.24" y="0">ADEMY</tspan></text><path class="cls-4" d="M368.24,345.65V268l-33.49,50.81h-.69l-33.15-50.31v77.16H275.25v-119h28.22L334.75,277,366,226.65h28.22v119h-26Z" transform="translate(-5.71 -82)"/><path class="cls-4" d="M424,345.65v-119h26.17v119Z" transform="translate(-5.71 -82)"/><path class="cls-4" d="M563.37,345.65,505.75,270v75.64H479.92v-119h24.13l55.74,73.25V226.67h25.84v119Z" transform="translate(-5.71 -82)"/><path class="cls-4" d="M660.6,345.65H614.2v-119h46.4c37.4,0,63.24,25.66,63.24,59.14v.34C723.82,319.64,698,345.65,660.6,345.65Zm35.86-59.5c0-21.08-14.45-35.87-35.87-35.87H640.36V322h20.23c21.42,0,35.87-14.45,35.87-35.54Z" transform="translate(-5.71 -82)"/><path class="cls-4" d="M775.17,243.49H799.3v30.58h30.76v23.45H799.3v30.59H775.17V297.52H744.41V274.07h30.76Z" transform="translate(-5.71 -82)"/><path class="cls-4" d="M275.25,203V84h26.18V203Z" transform="translate(-5.71 -82)"/><path class="cls-4" d="M388.47,205.06c-37.07,0-62.55-26-62.55-61.19v-.34C325.92,109.7,352.27,82,388.3,82c21.43,0,34.34,5.78,46.75,16.32l-16.5,19.89c-9.18-7.65-17.33-12.07-31.1-12.07-19,0-34.16,16.84-34.16,37.05v.34c0,21.76,15,37.74,36,37.74,9.52,0,18-2.39,24.64-7.14v-17H387.61V134.52h51.67v51.67A77.28,77.28,0,0,1,388.47,205.06Z" transform="translate(-5.71 -82)"/><path class="cls-4" d="M465.63,203V84h26.18V203Z" transform="translate(-5.71 -82)"/><path class="cls-4" d="M575.45,108.17V203H549.28V108.17H513.07V84.05h98.59v24.12Z" transform="translate(-5.71 -82)"/><path class="cls-4" d="M705,203l-10.87-26.69H643.77L632.9,203H606.21l51-119.83h24.12l51,119.83Zm-36-88.38-15.8,38.59h31.62Z" transform="translate(-5.71 -82)"/><path class="cls-4" d="M750.69,203V84h26.17v95.19h59.32V203Z" transform="translate(-5.71 -82)"/><path class="cls-4" d="M108.52,82H24.15A18.43,18.43,0,0,0,5.71,100.44v225.5a19.71,19.71,0,0,0,19.71,19.71h83.11c82.87,0,140.11-57.63,140.11-131.82v-.75C248.63,138.87,191.38,82,108.52,82ZM14.36,171.38a3.9,3.9,0,1,1,3.89-3.9A3.89,3.89,0,0,1,14.36,171.38Zm13.19-19.64a5.86,5.86,0,1,1,5.86,5.86A5.86,5.86,0,0,1,27.55,151.74Zm11.66,49.72a3.53,3.53,0,1,1,3.53-3.52A3.52,3.52,0,0,1,39.21,201.46Zm.55-20.05a5.08,5.08,0,1,1,5.07-5.07A5.07,5.07,0,0,1,39.76,181.41Zm15.3,3a4.12,4.12,0,1,1,4.12,4.12A4.13,4.13,0,0,1,55.06,184.39Zm9.31,23.34a6.35,6.35,0,1,1,6.34-6.35A6.35,6.35,0,0,1,64.37,207.73ZM76.3,219.79a5.22,5.22,0,1,1,5.22-5.22A5.22,5.22,0,0,1,76.3,219.79Zm4.91-47.54a8.57,8.57,0,1,1,8.57,8.56A8.57,8.57,0,0,1,81.21,172.25Zm-.75-15.51a5,5,0,1,1,5,5A5,5,0,0,1,80.46,156.74Zm71,17.49a10.66,10.66,0,1,1-10.65-10.65A10.64,10.64,0,0,1,151.44,174.23Zm-5.19-18.14a5,5,0,1,1,5,5A5,5,0,0,1,146.25,156.09Zm1.34,49.16a6.69,6.69,0,1,1-6.7-6.7A6.71,6.71,0,0,1,147.59,205.25Zm-27.66-33.52a14.59,14.59,0,1,1,14.6-14.59A14.59,14.59,0,0,1,119.93,171.73ZM101.27,151.6a5.67,5.67,0,1,1,5.67-5.67A5.67,5.67,0,0,1,101.27,151.6ZM88.49,195.09a3.63,3.63,0,1,1,3.63,3.62A3.64,3.64,0,0,1,88.49,195.09Zm18.64,64.78a6.3,6.3,0,1,1,6.3-6.3A6.3,6.3,0,0,1,107.13,259.87ZM103.8,236.3a12.42,12.42,0,1,1,12.41-12.42A12.41,12.41,0,0,1,103.8,236.3Zm9.53-37.45a7.26,7.26,0,1,1,7.27-7.26A7.26,7.26,0,0,1,113.33,198.85Zm18,57.31a3.34,3.34,0,1,1,3.34-3.33A3.34,3.34,0,0,1,131.32,256.16Zm3.13-19.26a6.49,6.49,0,1,1,6.49-6.49A6.5,6.5,0,0,1,134.45,236.9Zm100.7,2.82a26.82,26.82,0,0,1-6.17,3.2c-4.17,1.36-5,2.34-4.51,6.61a7.64,7.64,0,0,0,.82,2c2.91,3.79,2.19,7.18-2,9.33-.82.42-1.69.74-2.54,1.11.74,1.13,1.48,2.27,2.24,3.4,1,2.56.45,4.7-2.34,6.55-4.72,3.14-5.91,7.86-6.57,13-.77,6-3.4,10.15-7.92,11.37a16.43,16.43,0,0,1-10.47-.79c-6.09-2.32-12.44-2.61-18.85-2.49a10.66,10.66,0,0,0-1.9.38,49.86,49.86,0,0,0-5.89,1.76,60.08,60.08,0,0,0-5.71,3.15c-5.38,6.27-5.65,13.84-5.09,21.48.37,5,1.34,10,2.08,15.26-7.55-7.94-11.68-17.42-14-27.83q-1.07-6.45-2.13-12.88c-.13-.58-.27-1.15-.4-1.74,0-1.57-.05-3.14-.06-4.72-.1-.79-.26-1.6-.28-2.39A169.32,169.32,0,0,1,146,251.12l.25-1.61c.84-3.62,1.66-7.26,2.52-10.89.22-1,.51-1.93.79-2.91.82-3.11,1.64-6.24,2.46-9.36.08-.28.18-.55.26-.84l0,0,6-18.75c1.11-3.88,2.24-7.75,3.35-11.63.68-3.65,1.36-7.31,2-10.95h0c.53-6.72.84-13.42-.5-20.09-.32-1.57-.79-3.12-1.19-4.68-.56-1.49-1.13-2.95-1.69-4.43L158,150.81l-3.36-4.4c-.65-.69-1.29-1.38-1.95-2.06-1.5-1.21-3-2.42-4.48-3.62l-3.27-2c-2-.93-4-1.87-6-2.82a69.65,69.65,0,0,0-6.88-2.07c-4.44-1-9-1.62-13.45-2.24-9.4-1.32-18.81-1.82-28.22.16-9.63,2-15.88,7.78-17.39,16.51a33.65,33.65,0,0,0,.88,14c.2.78.34,1.58.52,2.37l1.82,5.3c-.19.11-.39.22-.58.35L72,165.05c-8.2-12.2-7.38-28.5,4.7-37.56,4.7-3.55,10.24-5,15.8-6.24,16-3.62,32-2.49,48,.52,2.45.46,4.87,1,7.28,1.56,2.71.64,5.42,1.27,8.12,1.92l5.25.9L159.62,124c-1.24-1-2.48-2-3.72-3-10.23-6-21.6-7.82-33.08-9.07a84,84,0,0,0-29.77,1.63c-.45.11-.9.27-1.33.41l-.87.29h-.18l-.15.11a38.39,38.39,0,0,0-5.28,1.93h0c-1.26.58-2.52,1.17-3.77,1.77l-.15,0-2.24.77-.09-.27,2.72-2.21,0,0,2.73-1.74a80.71,80.71,0,0,1,28.2-9.52,116.49,116.49,0,0,1,27.3-.39,136.42,136.42,0,0,1,24.74,4.29c2.06.58,4.06,1.4,6.07,2.09l6.12,2.75,4.85,2.42,4,2.5c1.78,1.32,3.59,2.62,5.38,3.94l2.27,1.81,3.65,3.59c.83.92,1.65,1.85,2.47,2.77l4.09,4.83c2.24,3.46,4.8,6.75,6.65,10.41,2.13,4.22,3.61,8.76,5.36,13.17q1.8,7.51,3.58,15a41,41,0,0,1,.48,15.17c-.08.5-.22,1-.33,1.53q-.87,4.65-1.71,9.28c1.29,3.13,2.56,6.27,3.9,9.38.53,1.22,1.22,2.38,1.85,3.57,3.43,5.12,6.91,10.2,10.24,15.37a49.29,49.29,0,0,1,2.63,5.3C237.27,236.14,237,238.48,235.15,239.72Z" transform="translate(-5.71 -82)"/></g></svg>