<svg id="Calque_1" data-name="Calque 1" xmlns="http://www.w3.org/2000/svg" viewBox="0 0 812.1 146.86"><title>LOGO DM+ ACADEMY-23</title><g id="Calque_5" data-name="Calque 5"><g style="isolation:isolate"><path d="M233.9,116.52h4.83l13,29.83h-5.5l-3-7.15h-14l-3.05,7.15h-5.33Zm7.45,18.07-5.12-11.85-5.08,11.85Z" style="fill:#fff"/></g><g style="isolation:isolate"><path d="M273.68,131.63v-.09a15,15,0,0,1,15.23-15.32,15.48,15.48,0,0,1,11.63,4.61l-3.34,3.86c-2.41-2.2-4.91-3.64-8.33-3.64-5.59,0-9.74,4.61-9.74,10.41v.08c0,5.8,4.11,10.49,9.78,10.49,3.6,0,6-1.44,8.5-3.8l3.35,3.38a15.1,15.1,0,0,1-12,5.25A14.9,14.9,0,0,1,273.68,131.63Z" style="fill:#fff"/></g><g style="isolation:isolate"><path d="M336.73,116.52h4.83l13,29.83h-5.5l-3-7.15h-14L329,146.35H323.7Zm7.45,18.07-5.12-11.85L334,134.59Z" style="fill:#fff"/><path d="M378.63,116.73h11c9.31,0,15.74,6.39,15.74,14.73v.08c0,8.34-6.43,14.81-15.74,14.81h-11Zm5.2,4.74v20.14h5.84c6.22,0,10.29-4.19,10.29-10v-.09c0-5.8-4.07-10.07-10.29-10.07Z" style="fill:#fff"/><path d="M430.68,116.73h22v4.65H435.89v7.71h14.85v4.69H435.89v7.92h17v4.65H430.68Z" style="fill:#fff"/><path d="M478,116.73h5.54l9,14,9-14h5.54v29.62H501.9V125.11l-9.35,14h-.17l-9.26-13.88v21.16H478Z" style="fill:#fff"/><path d="M542.41,134.67l-11.77-17.94h6.18l8.25,13.08,8.38-13.08h6l-11.77,17.81v11.81h-5.24Z" style="fill:#fff"/></g><path d="M524.7,86.6V38.3L503.9,69.9h-.4L482.9,38.6v48h-16v-74h17.5L503.9,44l19.5-31.3h17.5v74Z" style="fill:#fff"/><path d="M559.4,86.6v-74h16.3v74Z" style="fill:#fff"/><path d="M646.1,86.6l-35.8-47v47H594.2v-74h15l34.7,45.6V12.6H660v74Z" style="fill:#fff"/><path d="M706.6,86.6H677.7v-74h28.9c23.3,0,39.3,16,39.3,36.8v.2C746,70.4,729.9,86.6,706.6,86.6Zm22.3-37c0-13.1-9-22.3-22.3-22.3H694.1V71.9h12.6c13.3,0,22.3-9,22.3-22.1Z" style="fill:#fff"/><path d="M777.9,23.1h15v19h19.2V56.7H792.9v19h-15v-19H758.7V42.1h19.1v-19Z" style="fill:#fff"/><path d="M105.6,86.6v-74h16.3v74Z" style="fill:#fff"/><path d="M176.1,87.9c-23.1,0-38.9-16.2-38.9-38.1v-.2c0-21,16.4-38.3,38.8-38.3,13.3,0,21.4,3.6,29.1,10.1L194.8,33.8c-5.7-4.8-10.8-7.5-19.4-7.5-11.8,0-21.3,10.5-21.3,23v.2c0,13.5,9.3,23.5,22.4,23.5a26.29,26.29,0,0,0,15.3-4.4V58.1H175.4V44h32.2V76.1A47.38,47.38,0,0,1,176.1,87.9Z" style="fill:#fff"/><path d="M224.1,86.6v-74h16.3v74Z" style="fill:#fff"/><path d="M292.4,27.6v59H276.1v-59H253.6v-15h61.3v15Z" style="fill:#fff"/><path d="M373,86.6,366.2,70H334.9l-6.8,16.6H311.5l31.7-74.5h15L390,86.6Zm-22.4-55-9.8,24h19.7Z" style="fill:#fff"/><path d="M401.4,86.6v-74h16.3V71.8h36.9V86.6Z" style="fill:#fff"/><path d="M37.7,0H12.4A12.33,12.33,0,0,0,0,12.4H0V85A11.71,11.71,0,0,0,11.7,96.7h26c30.4,0,51.4-21.1,51.4-48.3v-.3C89.1,20.8,68.1,0,37.7,0ZM3.2,32.8a1.4,1.4,0,1,1,0-2.8,1.37,1.37,0,0,1,1.4,1.4h0a1.43,1.43,0,0,1-1.4,1.4ZM8,25.6a2.2,2.2,0,1,1,2.2,2.2A2.29,2.29,0,0,1,8,25.6Zm4.3,18.2a1.3,1.3,0,1,1,1.3-1.3,1.32,1.32,0,0,1-1.3,1.3Zm.2-7.3a1.9,1.9,0,1,1,1.9-1.9h0a2,2,0,0,1-1.9,1.9Zm5.6,1A1.5,1.5,0,1,1,19.6,39h0A1.47,1.47,0,0,1,18.1,37.5Zm3.4,8.6a2.3,2.3,0,1,1,2.3-2.3h0a2.33,2.33,0,0,1-2.3,2.3Zm4.4,4.4a1.9,1.9,0,1,1,1.9-1.9h0a1.9,1.9,0,0,1-1.9,1.9Zm1.8-17.4a3.15,3.15,0,1,1,3.2,3.1h0a3.14,3.14,0,0,1-3.2-3.1Zm-.3-5.7a1.8,1.8,0,1,1,1.8,1.8,1.79,1.79,0,0,1-1.8-1.8Zm26,6.4a3.9,3.9,0,1,1-3.9-3.9h.1a4,4,0,0,1,3.8,3.9Zm-1.9-6.6A1.8,1.8,0,1,1,53.3,29a1.79,1.79,0,0,1-1.8-1.8Zm.5,18a2.46,2.46,0,0,1-2.4,2.5,2.52,2.52,0,0,1-2.5-2.4,2.46,2.46,0,0,1,2.4-2.5h0A2.28,2.28,0,0,1,52,45.2c.1-.1.1,0,.1,0ZM41.9,33a5.27,5.27,0,0,1-5.3-5.3,5.42,5.42,0,0,1,5.3-5.4,5.27,5.27,0,0,1,5.3,5.3h0A5.42,5.42,0,0,1,41.9,33Zm-6.8-7.5a2.26,2.26,0,0,1-2.2-2,2.1,2.1,0,1,1,4.2-.2v.1A2,2,0,0,1,35.1,25.5Zm-4.7,16a1.3,1.3,0,1,1,1.3,1.3,1.21,1.21,0,0,1-1.3-1.3Zm6.8,23.7a2.3,2.3,0,1,1,2.3-2.3h0A2.33,2.33,0,0,1,37.2,65.2ZM36,56.6A4.59,4.59,0,0,1,31.4,52a4.6,4.6,0,0,1,9.2,0A4.72,4.72,0,0,1,36,56.6Zm3.5-13.7a2.67,2.67,0,0,1-2.7-2.6,2.74,2.74,0,0,1,2.6-2.7,2.67,2.67,0,0,1,2.7,2.6h0A2.81,2.81,0,0,1,39.5,42.9Zm6.6,21a1.2,1.2,0,1,1,1.2-1.2h0a1.22,1.22,0,0,1-1.2,1.2Zm1.1-7.1a2.4,2.4,0,1,1,2.4-2.4,2.43,2.43,0,0,1-2.4,2.4Zm36.9,1A10.08,10.08,0,0,1,81.8,59c-1.5.5-1.8.8-1.7,2.4a4.88,4.88,0,0,0,.3.7c1.1,1.4.8,2.6-.8,3.4a3.55,3.55,0,0,1-.9.4,5.67,5.67,0,0,1,.8,1.3,1.89,1.89,0,0,1-.8,2.4,6.11,6.11,0,0,0-2.4,4.8c-.3,2.2-1.3,3.7-2.9,4.2a6.16,6.16,0,0,1-3.8-.3,18,18,0,0,0-6.9-.9c-.2,0-.5.1-.7.1l-2.2.6a22.47,22.47,0,0,0-2.1,1.2c-2,2.3-2.1,5.1-1.9,7.9.1,1.8.5,3.7.8,5.6a20.6,20.6,0,0,1-5.1-10.2c-.3-1.6-.5-3.2-.8-4.7l-.2-.6V75.6a2.77,2.77,0,0,1-.1-.9,66.81,66.81,0,0,1,.9-12.6l.1-.6c.3-1.3.6-2.7.9-4,.1-.4.2-.7.3-1.1l.9-3.4c0-.1.1-.2.1-.3h0c.7-2.3,1.5-4.6,2.2-6.9.4-1.4.8-2.8,1.2-4.3a33.79,33.79,0,0,0,.7-4h0a26.24,26.24,0,0,0-.2-7.4c-.1-.6-.3-1.1-.4-1.7a7.58,7.58,0,0,0-.6-1.6c-.2-.5-.6-1-.8-1.5l-1.2-1.6-.7-.8-1.6-1.3L51,20.8l-2.2-1c-.8-.3-1.6-.5-2.5-.8a41.66,41.66,0,0,0-4.9-.8,28,28,0,0,0-10.4.1c-3.5.7-5.8,2.8-6.4,6a12.48,12.48,0,0,0,.3,5.1c.1.3.1.6.2.9.2.7.5,1.3.7,1.9-.1,0-.1.1-.2.1l-1.4-2C21.3,26,21.6,20,26,16.7a14.73,14.73,0,0,1,5.8-2.3c5.9-1.3,11.7-.9,17.6.2l2.7.6,3,.7c.6.1,1.2.2,1.9.3-.2-.3-.4-.5-.6-.8L55,14.3c-3.8-2.2-7.9-2.9-12.1-3.3a33.38,33.38,0,0,0-10.9.6l-.5.1-.3.1h-.1a10.66,10.66,0,0,0-1.9.7h0l-1.4.6h0l-.8.4v-.1c.3-.3.7-.5,1-.8h0l1-.6A29.1,29.1,0,0,1,39.4,8.5a41.82,41.82,0,0,1,10-.1,47.54,47.54,0,0,1,9,1.7,14.27,14.27,0,0,1,2.2.8l2.2,1,1.8.9,1.5.9a24.26,24.26,0,0,0,2,1.4l.8.7a15.93,15.93,0,0,1,1.3,1.3l.9,1,1.5,1.8A30.3,30.3,0,0,1,75,23.7c.8,1.6,1.3,3.2,2,4.8.4,1.8.9,3.7,1.3,5.5a15,15,0,0,1,.2,5.6c0,.2-.1.4-.1.6-.2,1.1-.4,2.3-.6,3.4.5,1.2.9,2.3,1.4,3.5.2.5.5.9.7,1.3,1.2,1.9,2.5,3.8,3.7,5.6a17.38,17.38,0,0,1,1,1.9,1.36,1.36,0,0,1-.5,1.9Z" style="fill:#fff"/></g></svg>