<svg id="Calque_1" data-name="Calque 1" xmlns="http://www.w3.org/2000/svg" viewBox="0 0 830.5 351.42"><title>LOGO DM+ ACADEMY-22</title><g id="Calque_5" data-name="Calque 5"><path d="M193.9,312.35h6.2l16.76,38.36h-7.07l-3.86-9.2h-18l-3.92,9.2h-6.86Zm9.58,23.23-6.59-15.23-6.53,15.23Z" transform="translate(0)" style="fill:#fff"/><path d="M244.29,331.77v-.1c0-10.83,8.11-19.7,19.59-19.7a19.88,19.88,0,0,1,15,5.93l-4.3,5c-3.1-2.83-6.31-4.68-10.72-4.68-7.18,0-12.51,5.93-12.51,13.39v.11c0,7.45,5.28,13.49,12.57,13.49,4.62,0,7.67-1.85,10.94-4.9l4.29,4.36a19.92,19.92,0,0,1-34.86-12.9Z" transform="translate(0)" style="fill:#fff"/><path d="M324.61,312.35h6.2l16.76,38.36H340.5l-3.86-9.2h-18l-3.92,9.2h-6.86Zm9.58,23.23-6.59-15.23-6.53,15.23Z" transform="translate(0)" style="fill:#fff"/><path d="M379.14,312.62h14.2c12,0,20.24,8.22,20.24,18.94v.11c0,10.71-8.27,19-20.24,19h-14.2Zm6.69,6.09v25.91h7.51c8,0,13.23-5.39,13.23-12.85v-.1c0-7.46-5.23-13-13.23-13Z" transform="translate(0)" style="fill:#fff"/><path d="M446.73,312.62H475v6H453.42v9.9h19.1v6h-19.1v10.17h21.82v6H446.73Z" transform="translate(0)" style="fill:#fff"/><path d="M508.23,312.62h7.12l11.59,18,11.59-18h7.13v38.09H539V323.39l-12,18h-.21l-12-17.89v27.21h-6.58Z" transform="translate(0)" style="fill:#fff"/><path d="M591.7,335.69l-15.12-23.07h7.94l10.61,16.81,10.78-16.81h7.67l-15.13,22.91v15.18H591.7Z" transform="translate(0)" style="fill:#fff"/><path d="M362.5,263.7V186L329,236.8h-.7l-33.1-50.3v77.2H269.5v-119h28.2L329,195l31.3-50.3h28.2v119Z" transform="translate(0)" style="fill:#fff"/><path d="M418.3,263.7v-119h26.2v119Z" transform="translate(0)" style="fill:#fff"/><path d="M557.7,263.7,500.1,188v75.6H474.3v-119h24L554,217.9V144.6h25.8v119H557.7Z" transform="translate(0)" style="fill:#fff"/><path d="M654.9,263.7H608.5v-119h46.4c37.4,0,63.2,25.7,63.2,59.1v.3C718.1,237.6,692.3,263.7,654.9,263.7Zm35.9-59.5c0-21.1-14.4-35.9-35.9-35.9H634.7V240h20.2c21.4,0,35.9-14.4,35.9-35.5Z" transform="translate(0)" style="fill:#fff"/><path d="M769.5,161.5h24.1v30.6h30.8v23.5H793.6v30.6H769.5V215.6H738.7V192.1h30.8Z" transform="translate(0)" style="fill:#fff"/><path d="M269.6,121V2h26.2V121Z" transform="translate(0)" style="fill:#fff"/><path d="M382.8,123.1c-37.1,0-62.5-26-62.5-61.2v-.3C320.3,27.8,346.7.1,382.7.1c21.4,0,34.3,5.8,46.7,16.3L412.9,36.3c-9.2-7.7-17.3-12.1-31.1-12.1-19,0-34.2,16.8-34.2,37v.3c0,21.8,15,37.7,36,37.7,9.5,0,18-2.4,24.6-7.1v-17H381.8V52.5h51.7v51.7A76.82,76.82,0,0,1,382.8,123.1Z" transform="translate(0)" style="fill:#fff"/><path d="M459.9,121V2h26.2V121Z" transform="translate(0)" style="fill:#fff"/><path d="M569.7,26.2V121H543.5V26.1H507.3V2h98.6V26.1l-36.2.1Z" transform="translate(0)" style="fill:#fff"/><path d="M699.3,121,688.4,94.3H638.1L627.2,121H600.5l51-119.8h24.1l51,119.8ZM663.2,32.6,647.4,71.2H679Z" transform="translate(0)" style="fill:#fff"/><path d="M745,121V2h26.2V97.2h59.3V121Z" transform="translate(0)" style="fill:#fff"/><path d="M102.8,0H18.4A18.48,18.48,0,0,0,0,18.4V243.9a19.67,19.67,0,0,0,19.64,19.7H102.8c82.9,0,140.1-57.6,140.1-131.8V131C242.9,56.9,185.7,0,102.8,0ZM8.7,89.4a3.9,3.9,0,1,1,3.9-3.9A3.91,3.91,0,0,1,8.7,89.4ZM21.8,69.7a5.9,5.9,0,1,1,5.9,5.9,5.9,5.9,0,0,1-5.9-5.9Zm11.7,49.8A3.5,3.5,0,1,1,37,116h0a3.42,3.42,0,0,1-3.34,3.5H33.5Zm.6-20.1a5.1,5.1,0,1,1,5.1-5.1h0A5.12,5.12,0,0,1,34.1,99.4Zm15.3,3a4.1,4.1,0,1,1,8.2,0,4.2,4.2,0,0,1-4.1,4.1,4.07,4.07,0,0,1-4.1-4Zm9.3,23.3a6.27,6.27,0,1,1,.06,0Zm11.9,12.1a5.2,5.2,0,1,1,5.2-5.2h0a5.16,5.16,0,0,1-5.12,5.2H70.6Zm4.9-47.6a8.6,8.6,0,1,1,8.6,8.6h0A8.6,8.6,0,0,1,75.5,90.2Zm-.7-15.5a5,5,0,1,1,5,5A5,5,0,0,1,74.8,74.7Zm70.9,17.5a10.61,10.61,0,1,1-10.62-10.6h0a10.54,10.54,0,0,1,10.6,10.48h0v.12Zm-5.1-18.1a5,5,0,1,1,5,5A5,5,0,0,1,140.6,74.1Zm1.3,49.1a6.7,6.7,0,1,1-6.7-6.7h0A6.7,6.7,0,0,1,141.9,123.2ZM114.2,89.7a14.6,14.6,0,1,1,14.6-14.6h0a14.54,14.54,0,0,1-14.48,14.6h-.12ZM95.6,69.6a5.7,5.7,0,1,1,5.7-5.7h0A5.7,5.7,0,0,1,95.6,69.6ZM82.8,113.1a3.6,3.6,0,1,1,3.6,3.6h0a3.59,3.59,0,0,1-3.6-3.58h0Zm18.6,64.8a6.3,6.3,0,1,1,6.3-6.3,6.3,6.3,0,0,1-6.3,6.3Zm-3.3-23.6a12.4,12.4,0,1,1,12.4-12.4h0A12.4,12.4,0,0,1,98.1,154.3Zm9.5-37.4a7.3,7.3,0,1,1,7.3-7.3,7.3,7.3,0,0,1-7.3,7.3Zm18,57.3a3.3,3.3,0,1,1,3.3-3.3h0a3.2,3.2,0,0,1-3.1,3.3h-.2Zm3.1-19.3a6.5,6.5,0,1,1,6.5-6.5h0a6.5,6.5,0,0,1-6.48,6.5Zm100.7,2.8a24.15,24.15,0,0,1-6.2,3.2c-4.2,1.4-5,2.3-4.5,6.6a11.92,11.92,0,0,0,.8,2c2.9,3.8,2.2,7.2-2,9.3-.8.4-1.7.7-2.5,1.1.7,1.1,1.5,2.3,2.2,3.4,1,2.6.5,4.7-2.3,6.6-4.7,3.1-5.9,7.9-6.6,13-.8,6-3.4,10.1-7.9,11.4a16.46,16.46,0,0,1-10.5-.8c-6.1-2.3-12.4-2.6-18.8-2.5a13.65,13.65,0,0,0-1.9.4,55,55,0,0,0-5.9,1.8q-2.93,1.45-5.7,3.2c-5.4,6.3-5.7,13.8-5.1,21.5.4,5,1.3,10,2.1,15.3-7.6-7.9-11.7-17.4-14-27.8l-2.1-12.9c-.1-.6-.3-1.1-.4-1.7,0-1.6,0-3.1-.1-4.7a19.19,19.19,0,0,1-.3-2.4,171.38,171.38,0,0,1,2.5-34.3l.3-1.6c.8-3.6,1.7-7.3,2.5-10.9.2-1,.5-1.9.8-2.9.8-3.1,1.6-6.2,2.5-9.4.1-.3.2-.5.3-.8h0c2-6.2,4-12.5,6-18.7,1.1-3.9,2.2-7.7,3.4-11.6.7-3.7,1.4-7.3,2-11h0c.5-6.7.8-13.4-.5-20.1-.3-1.6-.8-3.1-1.2-4.7-.6-1.5-1.1-2.9-1.7-4.4-.8-1.4-1.5-2.8-2.3-4.1-1.1-1.5-2.2-2.9-3.4-4.4-.6-.7-1.3-1.4-1.9-2.1l-4.5-3.6c-1.1-.7-2.2-1.4-3.3-2-2-.9-4-1.9-6-2.8-2.2-.8-4.5-1.4-6.9-2.1-4.4-1-9-1.6-13.4-2.2-9.4-1.3-18.8-1.8-28.2.2-9.6,2-15.9,7.8-17.4,16.5a33.11,33.11,0,0,0,.9,14c.2.8.3,1.6.5,2.4.6,1.8,1.2,3.5,1.8,5.3a2.17,2.17,0,0,0-.6.4c-1.2-1.8-2.4-3.5-3.6-5.3C58.1,71.3,58.9,55,71,45.9c4.7-3.5,10.2-5,15.8-6.2,16-3.6,32-2.5,48,.5,2.4.5,4.9,1,7.3,1.6,2.7.6,5.4,1.3,8.1,1.9,1.7.3,3.3.6,5.3.9-.6-.9-1.1-1.5-1.5-2.1-1.2-1-2.5-2-3.7-3-10.2-6-21.6-7.8-33.1-9.1A85.35,85.35,0,0,0,87.4,32c-.5.1-.9.3-1.3.4l-.9.3H85l-.1.1a41.28,41.28,0,0,0-5.3,1.9h0c-1.3.6-2.5,1.2-3.8,1.8h-.1c-.7.3-1.5.5-2.2.8,0-.1-.1-.2-.1-.3.9-.7,1.8-1.5,2.7-2.2h0c.9-.6,1.8-1.2,2.7-1.7A80.61,80.61,0,0,1,107,23.6a118.7,118.7,0,0,1,27.3-.4A137.92,137.92,0,0,1,159,27.5c2.1.6,4.1,1.4,6.1,2.1,2,.9,4.1,1.8,6.1,2.8l4.8,2.4c1.3.8,2.7,1.7,4,2.5l5.4,3.9c.8.6,1.5,1.2,2.3,1.8,1.2,1.2,2.4,2.4,3.7,3.6.8.9,1.6,1.9,2.5,2.8,1.4,1.6,2.7,3.2,4.1,4.8,2.2,3.5,4.8,6.7,6.7,10.4,2.1,4.2,3.6,8.8,5.4,13.2l3.6,15a41.13,41.13,0,0,1,.5,15.2l-.3,1.5c-.6,3.1-1.1,6.2-1.7,9.3,1.3,3.1,2.6,6.3,3.9,9.4a30.92,30.92,0,0,0,1.9,3.6c3.4,5.1,6.9,10.2,10.2,15.4a31.74,31.74,0,0,1,2.6,5.3,4.07,4.07,0,0,1-1.4,5.2Z" transform="translate(0)" style="fill:#fff"/></g></svg>