<svg id="Calque_1" data-name="Calque 1" xmlns="http://www.w3.org/2000/svg" viewBox="0 0 830.5 365.62"><defs><style>.cls-1{isolation:isolate;font-size:54.42px;font-family:Gotham-Medium, Gotham;font-weight:500;letter-spacing:0.42em;}.cls-1,.cls-4{fill:#332e32;}.cls-2{letter-spacing:0.46em;}.cls-3{letter-spacing:0.46em;}.cls-5{fill:#800020;}</style></defs><title>LOGO DM+ ACADEMY-21</title><g id="Calque_5" data-name="Calque 5"><text class="cls-1" transform="translate(175.51 350.71)">A<tspan class="cls-2" x="65.57" y="0">C</tspan><tspan class="cls-3" x="130.71" y="0">ADEMY</tspan></text><path class="cls-4" d="M368.2,272.7V195l-33.5,50.8H334l-33.1-50.3v77.2H275.2v-119h28.2L334.7,204,366,153.7h28.2v119Z" transform="translate(-5.7 -9)"/><path class="cls-4" d="M424,272.7v-119h26.2v119Z" transform="translate(-5.7 -9)"/><path class="cls-4" d="M563.4,272.7,505.8,197v75.6H480v-119h24l55.7,73.3V153.6h25.8v119H563.4Z" transform="translate(-5.7 -9)"/><path class="cls-4" d="M660.6,272.7H614.2v-119h46.4c37.4,0,63.2,25.7,63.2,59.1v.3C723.8,246.6,698,272.7,660.6,272.7Zm35.9-59.5c0-21.1-14.4-35.9-35.9-35.9H640.4V249h20.2c21.4,0,35.9-14.4,35.9-35.5Z" transform="translate(-5.7 -9)"/><path class="cls-4" d="M775.2,170.5h24.1v30.6h30.8v23.5H799.3v30.6H775.2V224.6H744.4V201.1h30.8Z" transform="translate(-5.7 -9)"/><path class="cls-5" d="M275.3,130V11h26.2V130Z" transform="translate(-5.7 -9)"/><path class="cls-5" d="M388.5,132.1c-37.1,0-62.5-26-62.5-61.2v-.3c0-33.8,26.4-61.5,62.4-61.5,21.4,0,34.3,5.8,46.7,16.3L418.6,45.3c-9.2-7.7-17.3-12.1-31.1-12.1-19,0-34.2,16.8-34.2,37v.3c0,21.8,15,37.7,36,37.7,9.5,0,18-2.4,24.6-7.1v-17H387.5V61.5h51.7v51.7A76.78,76.78,0,0,1,388.5,132.1Z" transform="translate(-5.7 -9)"/><path class="cls-5" d="M465.6,130V11h26.2V130Z" transform="translate(-5.7 -9)"/><path class="cls-5" d="M575.4,35.2V130H549.2V35.1H513V11h98.6V35.1l-36.2.1Z" transform="translate(-5.7 -9)"/><path class="cls-5" d="M705,130l-10.9-26.7H643.8L632.9,130H606.2l51-119.8h24.1l51,119.8ZM668.9,41.6,653.1,80.2h31.6Z" transform="translate(-5.7 -9)"/><path class="cls-5" d="M750.7,130V11h26.2v95.2h59.3V130Z" transform="translate(-5.7 -9)"/><path class="cls-5" d="M108.5,9H24.1A18.48,18.48,0,0,0,5.7,27.4V252.9a19.67,19.67,0,0,0,19.7,19.7h83.1c82.9,0,140.1-57.6,140.1-131.8V140C248.6,65.9,191.4,9,108.5,9ZM14.4,98.4a3.9,3.9,0,1,1,3.9-3.9A3.9,3.9,0,0,1,14.4,98.4ZM27.5,78.7a5.9,5.9,0,1,1,5.9,5.9A5.91,5.91,0,0,1,27.5,78.7Zm11.7,49.8a3.5,3.5,0,1,1,3.5-3.5A3.42,3.42,0,0,1,39.2,128.5Zm.6-20.1a5.1,5.1,0,1,1,5.1-5.1A5.12,5.12,0,0,1,39.8,108.4Zm15.3,3a4.1,4.1,0,1,1,8.2,0,4.19,4.19,0,0,1-4.1,4.1A4.06,4.06,0,0,1,55.1,111.4Zm9.3,23.3a6.3,6.3,0,1,1,6.3-6.3A6.27,6.27,0,0,1,64.4,134.7Zm11.9,12.1a5.2,5.2,0,1,1,5.2-5.2A5.16,5.16,0,0,1,76.3,146.8Zm4.9-47.6a8.6,8.6,0,1,1,8.6,8.6A8.6,8.6,0,0,1,81.2,99.2Zm-.7-15.5a5,5,0,1,1,5,5A5,5,0,0,1,80.5,83.7Zm70.9,17.5a10.61,10.61,0,0,1-10.6,10.6,10.6,10.6,0,1,1,0-21.2A10.54,10.54,0,0,1,151.4,101.2Zm-5.1-18.1a5,5,0,1,1,5,5A5,5,0,0,1,146.3,83.1Zm1.3,49.1a6.7,6.7,0,1,1-6.7-6.7A6.7,6.7,0,0,1,147.6,132.2ZM119.9,98.7a14.6,14.6,0,1,1,14.6-14.6A14.55,14.55,0,0,1,119.9,98.7ZM101.3,78.6a5.7,5.7,0,1,1,5.7-5.7A5.7,5.7,0,0,1,101.3,78.6ZM88.5,122.1a3.6,3.6,0,1,1,3.6,3.6A3.59,3.59,0,0,1,88.5,122.1Zm18.6,64.8a6.3,6.3,0,1,1,6.3-6.3A6.34,6.34,0,0,1,107.1,186.9Zm-3.3-23.6a12.4,12.4,0,1,1,12.4-12.4A12.4,12.4,0,0,1,103.8,163.3Zm9.5-37.4a7.3,7.3,0,1,1,7.3-7.3A7.34,7.34,0,0,1,113.3,125.9Zm18,57.3a3.3,3.3,0,1,1,3.3-3.3A3.2,3.2,0,0,1,131.3,183.2Zm3.1-19.3a6.5,6.5,0,1,1,6.5-6.5A6.49,6.49,0,0,1,134.4,163.9Zm100.7,2.8a24.32,24.32,0,0,1-6.2,3.2c-4.2,1.4-5,2.3-4.5,6.6a11.92,11.92,0,0,0,.8,2c2.9,3.8,2.2,7.2-2,9.3-.8.4-1.7.7-2.5,1.1.7,1.1,1.5,2.3,2.2,3.4,1,2.6.5,4.7-2.3,6.6-4.7,3.1-5.9,7.9-6.6,13-.8,6-3.4,10.1-7.9,11.4a16.44,16.44,0,0,1-10.5-.8c-6.1-2.3-12.4-2.6-18.8-2.5a12.86,12.86,0,0,0-1.9.4,57.57,57.57,0,0,0-5.9,1.8,63.81,63.81,0,0,0-5.7,3.2c-5.4,6.3-5.7,13.8-5.1,21.5.4,5,1.3,10,2.1,15.3-7.6-7.9-11.7-17.4-14-27.8l-2.1-12.9c-.1-.6-.3-1.1-.4-1.7,0-1.6,0-3.1-.1-4.7a19.67,19.67,0,0,1-.3-2.4,171.22,171.22,0,0,1,2.5-34.3l.3-1.6c.8-3.6,1.7-7.3,2.5-10.9.2-1,.5-1.9.8-2.9.8-3.1,1.6-6.2,2.5-9.4.1-.3.2-.5.3-.8h0c2-6.2,4-12.5,6-18.7,1.1-3.9,2.2-7.7,3.4-11.6.7-3.7,1.4-7.3,2-11h0c.5-6.7.8-13.4-.5-20.1-.3-1.6-.8-3.1-1.2-4.7-.6-1.5-1.1-2.9-1.7-4.4-.8-1.4-1.5-2.8-2.3-4.1-1.1-1.5-2.2-2.9-3.4-4.4-.6-.7-1.3-1.4-1.9-2.1l-4.5-3.6c-1.1-.7-2.2-1.4-3.3-2-2-.9-4-1.9-6-2.8-2.2-.8-4.5-1.4-6.9-2.1-4.4-1-9-1.6-13.4-2.2-9.4-1.3-18.8-1.8-28.2.2C80.8,61.2,74.5,67,73,75.7a33.14,33.14,0,0,0,.9,14c.2.8.3,1.6.5,2.4.6,1.8,1.2,3.5,1.8,5.3a2.09,2.09,0,0,0-.6.4c-1.2-1.8-2.4-3.5-3.6-5.3C63.8,80.3,64.6,64,76.7,54.9c4.7-3.5,10.2-5,15.8-6.2,16-3.6,32-2.5,48,.5,2.4.5,4.9,1,7.3,1.6,2.7.6,5.4,1.3,8.1,1.9,1.7.3,3.3.6,5.3.9-.6-.9-1.1-1.5-1.5-2.1-1.2-1-2.5-2-3.7-3-10.2-6-21.6-7.8-33.1-9.1A85.34,85.34,0,0,0,93.1,41c-.5.1-.9.3-1.3.4l-.9.3h-.2l-.1.1a41.35,41.35,0,0,0-5.3,1.9h0c-1.3.6-2.5,1.2-3.8,1.8h-.1c-.7.3-1.5.5-2.2.8,0-.1-.1-.2-.1-.3.9-.7,1.8-1.5,2.7-2.2h0c.9-.6,1.8-1.2,2.7-1.7a80.47,80.47,0,0,1,28.2-9.5,118.73,118.73,0,0,1,27.3-.4,137.3,137.3,0,0,1,24.7,4.3c2.1.6,4.1,1.4,6.1,2.1,2,.9,4.1,1.8,6.1,2.8l4.8,2.4c1.3.8,2.7,1.7,4,2.5l5.4,3.9c.8.6,1.5,1.2,2.3,1.8,1.2,1.2,2.4,2.4,3.7,3.6.8.9,1.6,1.9,2.5,2.8,1.4,1.6,2.7,3.2,4.1,4.8,2.2,3.5,4.8,6.7,6.7,10.4,2.1,4.2,3.6,8.8,5.4,13.2l3.6,15a41.09,41.09,0,0,1,.5,15.2l-.3,1.5c-.6,3.1-1.1,6.2-1.7,9.3,1.3,3.1,2.6,6.3,3.9,9.4a31.25,31.25,0,0,0,1.9,3.6c3.4,5.1,6.9,10.2,10.2,15.4a32.57,32.57,0,0,1,2.6,5.3A4.07,4.07,0,0,1,235.1,166.7Z" transform="translate(-5.7 -9)"/></g></svg>